PathFileType	4	(x/y/z)	S06_M20_T24
DataRate	CameraRate	NumFrames	NumMarkers	Units	OrigDataRate	OrigDataStartFrame	OrigNumFrames
240	240	5	51	mm	240	301	481
Frame#	Time	Sternum			R.Acromium			L.Acromium			Top.Head			R.ASIS			L.ASIS			R.PSIS			L.PSIS			R.Great.Tro			L.Great.Tro			R.Iliac.Crest			L.Iliac.Crest			V.Sacral			R.Thigh.Upper.Post			R.Thigh.Lower.Ant			R.Thigh.Lower.Post			R.Thigh.Upper.Ant			R.Knee.Lat			R.Knee.Med			R.Shank.Upper.Post			R.Shank.Lower.Ant			R.Shank.Lower.Post			R.Shank.Upper.Ant			R.Ankle.Lat			R.Ankle.Med			R.Heel.Upper			R.Heel.Med			R.Heel.Lat			R.Toe.Lat			R.Toe.Med			R.Toe.Tip			L.Thigh.Upper.Post			L.Thigh.Lower.Ant			L.Thigh.Lower.Post			L.Thigh.Upper.Ant			L.Knee.Lat			L.Knee.Med			L.Shank.Upper.Post			L.Shank.Lower.Ant			L.Shank.Lower.Post			L.Shank.Upper.Ant			L.Ankle.Lat			L.Ankle.Med			L.Heel.Upper			L.Heel.Med			L.Heel.Lat			L.Toe.Lat			L.Toe.Med			L.Toe.Tip			Cervical.Spine			Back			
		X1	Y1	Z1	X2	Y2	Z2	X3	Y3	Z3	X4	Y4	Z4	X5	Y5	Z5	X6	Y6	Z6	X7	Y7	Z7	X8	Y8	Z8	X9	Y9	Z9	X10	Y10	Z10	X11	Y11	Z11	X12	Y12	Z12	X13	Y13	Z13	X14	Y14	Z14	X15	Y15	Z15	X16	Y16	Z16	X17	Y17	Z17	X18	Y18	Z18	X19	Y19	Z19	X20	Y20	Z20	X21	Y21	Z21	X22	Y22	Z22	X23	Y23	Z23	X24	Y24	Z24	X25	Y25	Z25	X26	Y26	Z26	X27	Y27	Z27	X28	Y28	Z28	X29	Y29	Z29	X30	Y30	Z30	X31	Y31	Z31	X32	Y32	Z32	X33	Y33	Z33	X34	Y34	Z34	X35	Y35	Z35	X36	Y36	Z36	X37	Y37	Z37	X38	Y38	Z38	X39	Y39	Z39	X40	Y40	Z40	X41	Y41	Z41	X42	Y42	Z42	X43	Y43	Z43	X44	Y44	Z44	X45	Y45	Z45	X46	Y46	Z46	X47	Y47	Z47	X48	Y48	Z48	X49	Y49	Z49	X50	Y50	Z50	X51	Y51	Z51	

301	1.25	36.879	1262.4	300.8	-80.333	1469.1	474.81	-112.91	1467	125.13	-40.323	1783.5	297.03	-8.4529	1028.2	437.26	6.3875	1021	183.68	NaN	NaN	NaN	-200.29	1044.4	254.15	-84.826	960.54	484.35	-80.764	941.52	126.53	-92.606	1105.2	461.83	-67.082	1091.3	141.62	-215.45	1011	299.19	-168.01	727.47	457.2	-139.98	635.03	421.63	-206.42	650.6	431.83	-97.74	713.33	443.5	-232.65	538.38	410.86	-218.23	547.72	283.8	-356.41	339.82	389.97	-321.47	260.39	365.58	-385.63	271.16	368.7	-291.61	328.84	387.53	-401.54	136.97	332.44	-383.24	145.45	250.56	-473.84	112	280.82	-470.67	79.935	250.72	-473.75	79.968	315.54	-305.01	37.106	363.8	-274.32	40.93	242.58	-209.6	43.037	291.72	61.273	709.6	150.67	131.02	655.61	216.81	74.046	621.75	173.16	108.62	745.32	192.46	95.186	535.4	193.49	119.51	553.35	315.22	155.51	311.97	209.17	241.25	287.6	201.65	186.95	247.04	226.53	207.81	349.67	191.01	302.94	140.71	218.48	306.94	176.55	305.38	268.55	62.865	272.97	291.2	50.686	309.22	292.55	42.164	247.83	436.02	143.57	195.64	443.18	180.64	307.58	487.56	230.09	245.69	-147.26	1520.8	304.55	-206.06	1246.7	306
302	1.2542	42.52	1261.9	300.68	-74.763	1468.7	474.68	-107.42	1466.5	124.99	-34.916	1783.1	296.77	-2.7716	1027.6	437.19	11.991	1020.4	183.6	NaN	NaN	NaN	-194.66	1044	254.15	-79.32	960.09	484.34	-75.432	940.97	126.67	-86.865	1104.7	461.78	-61.483	1090.7	141.56	-209.85	1010.6	299.2	-163.14	727.29	457.31	-135.34	634.73	421.84	-201.76	650.5	431.95	-92.906	712.94	443.66	-228.34	538.33	411.01	-213.72	547.55	284.01	-353.58	340.66	390.24	-319.29	260.95	365.8	-383.38	272.23	368.98	-288.94	329.18	387.68	-400.46	138.18	332.75	-381.96	146.54	250.87	-472.86	113.86	281.2	-470.04	81.842	251	-473.08	81.725	315.85	-304.75	37.169	363.85	-274.11	41.038	242.61	-209.46	42.888	291.74	66.535	708.92	151.03	136.28	655.04	217.27	79.251	621.11	173.75	113.97	744.71	192.67	100.5	534.88	194.06	124.82	553.01	315.79	160.53	311.29	209.94	246.22	286.79	202.58	191.83	246.35	227.39	212.91	348.89	191.86	307.76	139.9	219.55	311.57	175.79	306.47	273.37	62.1	273.98	295.88	49.954	310.29	297.43	41.418	248.9	440.89	142.95	197.03	447.59	180.15	309	492.02	229.62	247.16	-141.78	1520.3	304.43	-200.42	1246.1	305.99
303	1.2583	48.193	1261.5	300.56	-69.167	1468.3	474.55	-101.9	1466	124.85	-29.504	1782.7	296.51	2.947	1027.1	437.11	17.643	1019.9	183.52	NaN	NaN	NaN	-188.99	1043.7	254.17	-73.779	959.66	484.32	-70.064	940.46	126.82	-81.08	1104.3	461.74	-55.849	1090.2	141.5	-204.2	1010.3	299.23	-158.23	727.12	457.42	-130.64	634.45	422.06	-197.03	650.42	432.08	-88.021	712.57	443.84	-223.95	538.29	411.17	-209.12	547.38	284.22	-350.69	341.53	390.52	-317.06	261.53	366.04	-381.08	273.34	369.29	-286.23	329.54	387.84	-399.35	139.45	333.1	-380.62	147.66	251.2	-471.83	115.79	281.59	-469.36	83.824	251.29	-472.35	83.545	316.17	-304.48	37.231	363.9	-273.89	41.154	242.64	-209.32	42.746	291.76	71.941	708.33	151.39	141.67	654.56	217.74	84.604	620.56	174.3	119.44	744.19	192.92	105.93	534.41	194.58	130.22	552.7	316.31	165.39	310.62	210.67	251.01	285.88	203.49	196.47	245.62	228.21	217.89	348.05	192.68	312.21	138.94	220.59	315.83	174.85	307.55	277.7	61.257	274.93	300.03	49.095	311.29	301.78	40.578	249.89	445.4	142.04	198.46	451.64	179.28	310.48	496.19	228.75	248.74	-136.27	1519.8	304.3	-194.74	1245.6	305.97
304	1.2625	53.898	1261.2	300.44	-63.543	1468	474.41	-96.368	1465.5	124.7	-24.089	1782.3	296.24	8.7032	1026.6	437.04	23.345	1019.4	183.43	NaN	NaN	NaN	-183.28	1043.3	254.21	-68.204	959.25	484.31	-64.651	940	126.98	-75.252	1103.9	461.7	-50.177	1089.8	141.46	-198.51	1010	299.27	-153.26	726.96	457.55	-125.88	634.19	422.3	-192.24	650.34	432.23	-83.084	712.22	444.04	-219.5	538.25	411.34	-204.44	547.21	284.45	-347.75	342.42	390.83	-314.78	262.14	366.3	-378.73	274.48	369.62	-283.47	329.93	388.01	-398.19	140.76	333.47	-379.2	148.82	251.56	-470.74	117.78	282.01	-468.63	85.881	251.59	-471.59	85.428	316.5	-304.2	37.291	363.96	-273.66	41.279	242.68	-209.18	42.609	291.78	77.487	707.84	151.76	147.16	654.15	218.22	90.096	620.09	174.82	125.03	743.75	193.2	111.45	533.98	195.07	135.69	552.42	316.77	170.09	309.94	211.34	255.61	284.88	204.39	200.87	244.85	228.98	222.77	347.15	193.48	316.31	137.84	221.61	319.75	173.72	308.62	281.56	60.355	275.82	303.68	48.124	312.22	305.62	39.661	250.81	449.55	140.84	199.91	455.35	178.05	312.02	500.11	227.48	250.41	-130.75	1519.4	304.16	-189.03	1245.1	305.96
305	1.2667	59.637	1260.8	300.31	-57.891	1467.7	474.26	-90.811	1465	124.54	-18.672	1781.9	295.97	14.497	1026.2	436.97	29.102	1018.9	183.35	NaN	NaN	NaN	-177.52	1043	254.24	-62.594	958.86	484.3	-59.18	939.59	127.12	-69.383	1103.6	461.68	-44.465	1089.3	141.41	-192.78	1009.7	299.32	-148.25	726.81	457.69	-121.06	633.94	422.55	-187.4	650.27	432.38	-78.096	711.88	444.26	-214.97	538.22	411.52	-199.67	547.05	284.68	-344.75	343.34	391.15	-312.43	262.78	366.58	-376.32	275.66	369.96	-280.65	330.33	388.19	-396.99	142.12	333.88	-377.72	150.01	251.95	-469.6	119.84	282.45	-467.84	88.015	251.91	-470.77	87.376	316.84	-303.9	37.35	364.02	-273.42	41.412	242.72	-209.04	42.48	291.8	83.165	707.44	152.12	152.76	653.8	218.71	95.716	619.71	175.31	130.73	743.38	193.52	117.05	533.6	195.51	141.24	552.15	317.19	174.66	309.26	211.96	260.05	283.78	205.27	205.07	244.04	229.7	227.55	346.2	194.26	320.09	136.62	222.61	323.35	172.43	309.68	284.99	59.414	276.65	306.87	47.06	313.08	309	38.688	251.66	453.39	139.38	201.39	458.74	176.49	313.62	503.79	225.86	252.19	-125.2	1518.9	304.02	-183.28	1244.6	305.95
